/* XPM */
static char *result[] = {
/* columns rows colors chars-per-pixel */
"64 64 150 2 ",
"   c #0F0500",
".  c #110701",
"X  c #160902",
"o  c #1B0B02",
"O  c #240B03",
"+  c #2E0B03",
"@  c #2D0F09",
"#  c #340C03",
"$  c #380D03",
"%  c #231106",
"&  c #2E1506",
"*  c #24150B",
"=  c #2B130B",
"-  c #26190E",
";  c #3D1105",
":  c #34140B",
">  c #3F170D",
",  c #351B0A",
"<  c #3A1E0C",
"1  c #2C1510",
"2  c #2B1D11",
"3  c #351E12",
"4  c #3A1E11",
"5  c #3D210E",
"6  c #2F2013",
"7  c #362214",
"8  c #3C2312",
"9  c #332419",
"0  c #3D2718",
"q  c #34281C",
"w  c #3E291B",
"e  c #2A2B2E",
"r  c #272E33",
"t  c #2A2E32",
"y  c #273034",
"u  c #2A3134",
"i  c #273339",
"p  c #29353C",
"a  c #2C383D",
"s  c #323331",
"d  c #313738",
"f  c #333A3C",
"g  c #383D3E",
"h  c #420F04",
"j  c #451004",
"k  c #4B1306",
"l  c #41140A",
"z  c #4C1708",
"x  c #411E0C",
"c  c #491C09",
"v  c #521506",
"b  c #5E1703",
"n  c #561906",
"m  c #5C1905",
"M  c #611703",
"N  c #641905",
"B  c #691804",
"V  c #41230F",
"C  c #422613",
"Z  c #462915",
"A  c #4B2C16",
"S  c #422A1B",
"D  c #4B2F1A",
"F  c #502F17",
"G  c #4D321D",
"H  c #563217",
"J  c #52331B",
"K  c #59351A",
"L  c #463121",
"P  c #4A3422",
"I  c #523724",
"U  c #5B3D26",
"Y  c #72451D",
"T  c #78471E",
"R  c #7A491F",
"E  c #5F412B",
"W  c #5E4530",
"Q  c #56423F",
"!  c #64442A",
"~  c #7F4C21",
"^  c #624630",
"/  c #654932",
"(  c #634038",
")  c #71523A",
"_  c #2E3D44",
"`  c #313E44",
"'  c #314047",
"]  c #3A4244",
"[  c #36464E",
"{  c #39464D",
"}  c #38484F",
"|  c #364750",
" . c #374951",
".. c #3A4B54",
"X. c #3D4F58",
"o. c #464547",
"O. c #4A4446",
"+. c #444548",
"@. c #414B4E",
"#. c #494E4E",
"$. c #524341",
"%. c #434E51",
"&. c #4F5555",
"*. c #4B565A",
"=. c #595E5C",
"-. c #6C6552",
";. c #76705C",
":. c #79735F",
">. c #475E68",
",. c #505C60",
"<. c #4C646F",
"1. c #4E6570",
"2. c #516A76",
"3. c #556D79",
"4. c #59717C",
"5. c #616766",
"6. c #646B6B",
"7. c #9A371B",
"8. c #95381D",
"9. c #99381C",
"0. c #B5340D",
"q. c #BD360C",
"w. c #A63614",
"e. c #AB3613",
"r. c #AE3814",
"t. c #A2391A",
"y. c #B03713",
"u. c #8B3A22",
"i. c #853D29",
"p. c #933B22",
"a. c #865022",
"s. c #8B5423",
"d. c #847A64",
"f. c #8F8771",
"g. c #938A73",
"h. c #9B967E",
"j. c #AF9175",
"k. c #5A7481",
"l. c #657A82",
"z. c #6C838F",
"x. c #728790",
"c. c #BEAE98",
"v. c #C3A586",
"b. c #C6A788",
"n. c #C2AD94",
"m. c #D5B697",
"M. c #D3B99D",
"N. c #DABB9B",
"B. c #C4B5A0",
"V. c #EBCCAB",
/* pixels */
"M M M M M M M B B B B B B B B B B B B B B B B B B B B B B B B B B B B B B B B B B B B B B B B B B B B B B B B B B B M M M M M M ",
"M M M M M M M M B B B B B B B B B B B B B B B B B B B B B B B B B B B B B B B B B B B B B B B B B B B B B B B B B M M M M M M M ",
"M M M M M M M M B B B B B B B B B B B B B B B B B B B B B B B B B B B B B B B B B B B B B B B B B B B B B B B B M M M M M M M M ",
"M M M M M M M M M B B B B B B B B B B B B B B B B B B B N N M B N N B B B B B B B B B B B B B B B B B B B B B B M M m M M M M M ",
"M M M M M M M M M M M M M B B B B B B B B B B B B B B M c < x < x x b N B B B B B B B B B N N N N N B B B B B M M M M M M M M M ",
"M M M M M M M M M M M M b M B B B B B B N B B B B B B M m x 5 C Z 5 5 c m B B B B B B M b V 5 V 4 C N B B B M M M M M M M M M M ",
"b M M M M M M M M M M M M M b m M B M M N B B B B B x < < < 5 C V A Z V V N B B B m 5 5 5 A Z Z A A x m B B M M M M M M M M M M ",
"v b M M M M M M M M M M M m m < 5 V 8 < n m N N m m n 8 C C Z V 5 C A Z 5 m m m < 5 8 Z A A F F A A A x n M M M m M M M M M M M ",
"v v b M M M M M M M M M v x 5 8 Z A Z 5 5 5 8 5 < < C C Z C Z Z 5 C A A 5 5 5 5 8 Z A G Z Z A Z A A A 8 > m M M M M M M M M M M ",
"v v b M M M M M M M b m x 8 Z A F A F A A 8 Z Z A A A A Z A Z Z A A F A A Z C C Z A A Z 5 5 5 5 A A A A 8 < m M M M M M M M M M ",
"v v m b b b M M M M m x Z A A A Z A Z Z A Z Z A D A A A A D A A A A A A A A C C A Z 5 5 , 5 , , 5 Z A A Z 8 m M M M M M M M M M ",
"v v v v v v v M M m < 8 A A A A 5 5 5 5 Z A Z A A A A D A A A F A A F A A F A Z Z A 5 < 5 , 5 5 < 5 A A A 5 m M M M M M M M M b ",
"v v v v v v v M b v 8 S A A 5 < 5 , , , A F A A F A A A F A A A F A A A A A A A A A Z 5 5 , 5 , < 5 A A A < m M M M M M b M m v ",
"v v v v v v v m v z 5 Z A A 5 < , 5 5 5 A A A A A A A D A A F A A A F Z 5 5 5 Z A A F Z 5 5 , 5 < 5 Z A 8 4 m M M M v v v v v v ",
"v v v v v v v v v z 5 Z A A 5 , , , < Z A A Z 5 5 < x A A A A A G A A 5 , , 5 5 A A F A 5 , , , 5 Z A A < v v v b v v v v v v v ",
"v v v v v v v v v v 5 5 A Z 5 < 5 , < A A A 5 < , < < < V A A F A A 5 , , 5 , , 5 A A A Z 5 5 5 5 A F Z < v j + v v v v v v v v ",
"v v v v v k v v v v k 4 A A 5 < , < 5 Z A A 5 < < < , , 5 Z A A A F Z 5 , < < 5 Z D A D A < 5 A A F Z 5 z j O j z z z v k v v v ",
"v v v v v v v v v v v 4 Z A < < , < Z A Z A Z 5 < < < 5 A A A A A A A Z Z Z Z Z F A A Z A A A D Z Z 5 5 v z O j O $ O j + z v v ",
"v v v v v v v v v v v k 4 A Z < < 5 Z Z Z A A A A C Z C Z Z A A F A Z Z 8 , & : Z A A C C A A Z 8 < z z v j O ; o o o j k v v v ",
"k v v v v v v v v v v v z 8 A A Z A A C A A A Z Z C & & & , Z A A A , G d.2 . . & Z A A Z C Z 8 < z v v v j o j o $ O h O j j v ",
"j j j k k v v v v v v v v 4 4 S A Z C 8 A A Z < L d.2 X . X , Z A Z 8 g.h.2 .   X & A A A A 8 < z v v z j o o ; + j O h O l O k ",
"j j j j k k v v v v v k v z 4 4 Z 5 7 7 A A Z 8 f.h.2 X . X & Z A A Z g.f.2 o o o : A A D D Z 4 z v k j O o ; + ; j j h j j O ; ",
"j j j j h k v v v v h k k k k > 8 3 , 8 A A Z , D :.2 X o o & A F A Z S C & & & , Z A A A A A 8 4 k O O j k v j O o o o o O $ j ",
"j j j h h h k h j k h h h k j v z , 5 Z A F A Z , 8 , & & , Z A A A F Z A Z A Z Z A A F A A A C 4 j j k j j j v k j h h $ h j j ",
"j j j j j j j j j j j j j j j k k ; 7 C A D A A A A Z C 8 C Z Z Z Z Z Z Z Z A A A A A F A A A C 3 j h k j j h k j j j j j j j j ",
"j j j j j j j j j j j j j j j j j j 3 C A A F A A A C % 2 6 2 % o % o % % % C A G A A A A F A C 8 > h j j j h j j j j j j j j j ",
"j j j j j j j j j j j j j j j j j j < C A A A A D Z O - -.:.;.- X o X X X X % Z F A A A A D A C 8 < h h j j j j j j j j j j j j ",
"j j j j j j j j j j j j j j j j j j 3 C Z A D D A Z o X - q -.- X X X o o X % Z A A F A F A A Z 0 4 k j j j j j j j j j j j j j ",
"j j j j j j j j j j j j j j j j j l < 8 Z A A D A A 8 % . X - o X o X X X o 8 A F A A A A D A C C < j h h k h j j j j j k j j j ",
"j j j j j j j j j j j j j j j j j j 5 8 C A A A Z F F 8 X X X X o X o X X % Z F Z A G A A D C C 8 7 l l h k h j j j j j j j j j ",
"j j j j j j j j j j j j j j j k l > 7 7 C Z A Z = 8 A Z o . X X X X X X 5 Z A 8 = Z A D A A C C 7 t u t l h j j j j j j j j j j ",
"j j j j j j j j j j j j j j e t u u e 7 C C A Z % % % C 0 % X X X X X % Z G A % O Z F A A Z C C 9 f ` ' e k j j j j j j j j j j ",
"$ h h j j j j j j j j j l e i | ' ' a 7 8 C Z A Z C % % C Z Z C % 8 Z 8 Z Z C & 0 F A A C C C 8 7 i ' [ d l h h h k j j j j j j ",
"$ $ $ h j j j j j h j h l r | | ' ' y 9 5 C C A A F 8 % % C Z V % C C % % % * C A F A A C C C q u y _ [ u l k h h h h h j h j h ",
"$ $ $ $ $ h h h $ $ h h l u | _ ' i i e 9 8 Z A A F A C % % % % % % % % C Z Z A A A Z 0 0 0 w u i i _ ' t l j j k k h k j $ $ $ ",
"$ $ $ $ $ $ $ $ $ $ $ $ : u ` _ i i i y 9 C 8 Z A A 5 A Z C C Z C C Z Z Z A 5 A A C Z 0 s u u i a i u s l j j j h h h h $ $ $ $ ",
"$ $ $ $ $ $ $ $ $ $ $ $ $ e i _ _ ' i i t 9 7 8 C A 5 Z V A 5 A 5 A V A V Z V Z 0 0 w s i _ _ _ ' u 4 > k j j j $ h h $ $ $ $ $ ",
"$ $ $ $ $ $ # $ $ $ $ $ : 3 y _ i [ ' ' _ y u 0 w Z 5 Z 5 Z 5 Z 5 Z 5 Z 5 Z V Z w s u i p _ { { ' i u e > ; j j $ $ $ $ $ $ $ $ ",
"$ $ # $ $ $ $ $ $ $ $ : e r i _ ' [ [ [ [ ' _ u u u w C 5 Z V Z V Z V Z 5 0 Z w u i ] ' _ ' } } @.' ' a t : $ $ $ $ $ $ $ $ $ $ ",
"$ $ $ $ $ $ $ $ $ $ : e i _ _ ' [ [ [ [ [ { ' ' i i s S 0 Z 0 0 0 C 0 0 w t u y a =.c.*.' [ } 5.c.*.[ ' _ e : $ $ $ $ $ $ $ $ $ ",
"$ $ $ $ $ $ $ $ $ : e i _ _ ` [ [ [ } } } } [ [ ` _ p i u u u y u u u u u i i i ..n.N.&.'  .*.c.N.*.X.` ` _ e @ $ $ $ $ $ $ $ $ ",
"# $ # $ $ $ $ $ : e i _ ` [ [ | [ [ } } | | | [ [ [ ` _ _ p i i y i a y i _ ` _ ] / ! G G ] } W ( I ` ..` ` _ _ : $ $ $ $ $ $ $ ",
"$ $ $ $ $ $ # $ e p _ _ | [ +.o.+.{ } o.o.+.{ | [ } [ [ ' _ p a p a <.[ ` ' { ` G ~ ~ H 8 ` ] K ~ K L ` ..` _ _ e : $ $ $ $ $ $ ",
"$ $ $ $ $ $ $ : u _ _ [ | $.t.y.7.o.Q 7.r.9.Q { [ [ [ [ [ [ ' >.[ ' <.<. .[ [ f J a.s.Y 0 d w Y a.a.I ..` X...` i e : $ $ $ $ $ ",
"# $ $ $ $ $ # : r _ ' [ Q 9.w.w.9.Q 9.w.w.w.u.+.[ ..[ [ | [ [ <.<.[ [ <... .[ ` G R R J 8 s 8 H ~ ~ G ` X...` ` _ i e @ $ $ $ $ ",
"$ $ $ $ $ $ : e p _ [ +.t.r.( Q +.o.9.( Q Q Q { [  .[ [ [ [ _ | <. .[ <...[ [ ` G J F A 5 5 5 A A F G { ` X...` _ _ i e : $ $ # ",
"+ $ $ $ $ $ : r _ ' [ O.r.q.r.7.] +.8.8.8.9.9.o.[ [ [ | [ | [ [ <...[ <... .[ f w A D A 5 5 C A A A S ` ` ` ....` ` _ _ e : $ $ ",
"+ + # $ $ # e _ _ [ [ o.r.0.w.9.+...Q Q Q ( 9.o.| [  .[ [ [ '  .<. . .<... .[ _ w Z A A 5 5 Z A C x 4 d _ ..` ` ....` _ t : # + ",
"+ + + + # : u _ ` ` | +.r.e.$.O.o.+.p.r.r.r.9.o.+.[ [ [ [ [ ' 1.<. .<.<...[ ' ' f S A A 5 A A C < < C S w ` ` [ [ [ ` ` p t @ + ",
"+ + + + @ e _ ` ` ..| +.p.7.+.+.i.o.$.7.e.7.$.o.i.+.| [ [ { %.1.X.X.1.X._ ' ` a f Z C Z A D C < < A A A A L ` [ [ [ | ` _ r = + ",
"+ + + + @ r _ ` X...| ..+.+.` ..+.[ [ o.+.+.[ ..o.[ [ [ [ ..x.3.X.x.4. ._ f P Z 8 5 < 5 A A Z x Z D D A A D ` ' [ [ [ [ ` _ t @ ",
"+ + + + 1 _ ` | ..` ..` ....` ..[ [ [ ..| | [ [ [ [ ..[ [ ..z.3.X.z.4.,.#.I ~ ~ H A Z 5 V Z C U E F A C C D f ` [ [ [ [ | _ r 1 ",
"+ + + @ e _ _ | ` ..` ..` ` ....[ [ [ [ [ [ [ } [ [ [ [ [ [ k.2...4.l.B.M.! ~ s.T F A A A A ^ N.N.U C C < C S f ` [ ..[ | ` _ r ",
"+ # + @ r r _ | ..| ..| ......` ..[ [ [ [ [ ..[ ..[ [ [ [ [ 1.<.} <.1.6.n.E K T T H A A A E m.V.m.J < 8 A A A L ` [ [ [ | [ _ i ",
"+ + + @ r _ ` | ..` ` ..` ....` ' ' [ [ [ [ [ [ [ [ [ [ [ [ [ ' [ [ [ } %.g P G G 5 Z Z A E b./ J C U A A A C S ` [ [ [ | | ` _ ",
"+ + + @ r _ ` ........| ..| | ..a ` [ [ ..[ [ [ [ [ [ ..[ [ [ ' [ [ ' [ _ ' ` f d 8 8 Z Z F U A C J v.) C C C S ` [ [ [ [ | | ` ",
"+ + O e _ | | ..` X.X.` X.` X.` p _ ` [ [ | ..[ [ ..[ [ [ [ [ [ [ [ [ } [ [ _ _ r 1 3 0 C A A A A / m.v.D 4 9 a ` [ [ [ ..[ [ ` ",
"+ @ r _ ` ` ..` X.` ` ..| | | ..p p _ | | [ [ [ [ [ [ [ [ ..[ [ } [ [ } [ [ _ p _ _ y 3 3 C C C I j.^ P 0 d ` _ ` [ [ [ [ [ [ [ ",
"+ 1 _ _ | ..| ..| X.| X.X.` | ` p _ ' [ [ [ [ [ [ [ ..[ [ [ [  .[ [ } [ [ ' _ p _ p _ _ r 9 8 8 8 P 7 e i _ _ _ ` | [ [ [ [ [ ..",
"@ e _ _ X.` X.` | ` | ` | X.` _ _ ` [ | [ ..[ [ [ [ [ [ } [ [ [ } [ [ [ ' _ p [ _ i _ _ i r u r y u t i _ i i _ { [ [ [ ..[ [ [ ",
"@ r _ _ X.| ` | ` | X.` | ..` _ _ ` | | [ [ [ [ } ..[ [ } [  . .[ [ | [ _ _ p | | _ _ | _ _ _ i _ ' _ _ _ _ i _ ` | ..[ [ [ [ ..",
"1 r _ _ ` X.X.| X.X.` ..` X._ _ _ ` | | ..{ [ [ [ [ [ [ [ | [ [ | | [ ' _ _ p | _ _ | | _ | _ _ | [ _ ' _ p _ _ _ ` { [ [ [ [ [ ",
"r _ _ ....` ..| | | ..| ` _ _ _ ` ' [ [ [ [ [ ..[ [ [ [ [ [ [ [ | [ ' _ _ _ p ' _ _ _ _ i _ _ _ | _ p ' | _ _ _ _ ` ` [ [ [ [ [ ",
"_ ` ` ..| ..` ..` ..` ..X._ _ _ ` ` ` [ [ [ } [ [ [ [ .. .[ } } [ [ ' _ _ _ i _ _ i _ _ _ _ _ _ _ _ _ _ _ p _ p _ _ ` [ [ [ [ .."
};
