/* XPM */
static char *result[] = {
/* columns rows colors chars-per-pixel */
"64 64 187 2 ",
"   c black",
".  c #010100",
"X  c #010101",
"o  c #020202",
"O  c #030302",
"+  c #020303",
"@  c gray1",
"#  c #040404",
"$  c #050504",
"%  c gray2",
"&  c #070707",
"*  c gray3",
"=  c #090909",
"-  c #0C0C0C",
";  c #161616",
":  c gray9",
">  c #191714",
",  c #1A1815",
"<  c #1E1B17",
"1  c #191919",
"2  c gray10",
"3  c #1B1B1B",
"4  c #1E1B18",
"5  c #1E1C19",
"6  c gray11",
"7  c #1D1D1D",
"8  c #1E1E1E",
"9  c gray12",
"0  c #221F1B",
"q  c #23201C",
"w  c #23201D",
"e  c #202020",
"r  c #202021",
"t  c gray13",
"y  c #222222",
"u  c #232323",
"i  c gray14",
"p  c #252525",
"a  c gray15",
"s  c #312E2C",
"d  c #34302A",
"f  c #35302A",
"g  c #36312B",
"h  c #32302D",
"j  c #33302D",
"k  c #33312E",
"l  c #37322C",
"z  c #34322F",
"x  c #38332D",
"c  c #39342D",
"v  c #3A352F",
"b  c gray19",
"n  c #313131",
"m  c #323232",
"M  c #333332",
"N  c gray20",
"B  c #343433",
"V  c #343434",
"C  c #353535",
"Z  c gray21",
"A  c #373737",
"S  c #3C3730",
"D  c #3A3734",
"F  c #3E3932",
"G  c #3A3835",
"H  c gray22",
"J  c #393939",
"K  c #3A3A39",
"L  c #3A3A3A",
"P  c gray23",
"I  c #3C3C3C",
"U  c gray24",
"Y  c #3E3E3E",
"T  c #3F3F3F",
"R  c #403D3A",
"E  c gray25",
"W  c #4B4741",
"Q  c #4B4946",
"!  c #4F4A44",
"~  c #4B4B4B",
"^  c gray30",
"/  c gray31",
"(  c #504B45",
")  c #534E48",
"_  c #504D4A",
"`  c #514F4C",
"'  c #505050",
"]  c #515151",
"[  c #535353",
"{  c gray33",
"}  c #555555",
"|  c gray34",
" . c #645F5A",
".. c gray49",
"X. c #AB9C88",
"o. c #AFA08C",
"O. c #B0A18D",
"+. c #B3A38F",
"@. c #A0A0A0",
"#. c #A7A7A7",
"$. c gray66",
"%. c #A9A9A8",
"&. c #AAAAAA",
"*. c gray67",
"=. c #ACACAB",
"-. c #ACACAC",
";. c gray68",
":. c #AEAEAE",
">. c #AFAFAF",
",. c gray69",
"<. c #B6B6B6",
"1. c #B8B7B7",
"2. c gray",
"3. c gray75",
"4. c #C5B39C",
"5. c #C6B49E",
"6. c #C7B59E",
"7. c #C9B7A0",
"8. c #C9B7A1",
"9. c #CAB7A0",
"0. c #CBB9A2",
"q. c #CEBBA4",
"w. c #CEBCA4",
"e. c #CFBCA5",
"r. c #CFBDA5",
"t. c #DECAB1",
"y. c #DFCBB1",
"u. c #E0CBB2",
"i. c #E0CCB2",
"p. c #E1CDB3",
"a. c #E2CDB3",
"s. c #E3CFB5",
"d. c #E4CFB5",
"f. c #E5D1B6",
"g. c #C0C0C0",
"h. c gray76",
"j. c #C3C3C3",
"k. c #C3C3C4",
"l. c gray77",
"z. c #C5C5C5",
"x. c #C6C6C6",
"c. c gray78",
"v. c #C7C7C8",
"b. c #C8C8C8",
"n. c gray79",
"m. c #CACACA",
"M. c #CBCACA",
"N. c #CBCBCB",
"B. c #CBCBCC",
"V. c gray80",
"C. c #CDCCCC",
"Z. c #CDCDCD",
"A. c #CECECE",
"S. c #CECECF",
"D. c gray81",
"F. c #D0D0D0",
"G. c gray86",
"H. c gainsboro",
"J. c gray87",
"K. c #DFDFDF",
"L. c #FDE6C9",
"P. c #FDE6CA",
"I. c #FEE7CA",
"U. c #FFE8CB",
"Y. c #FFEACC",
"T. c #FFEACD",
"R. c #FFECCE",
"E. c gray88",
"W. c #E1E1E1",
"Q. c #E2E2E2",
"!. c gray89",
"~. c #E4E4E4",
"^. c gray90",
"/. c #E6E6E6",
"(. c #E7E7E7",
"). c gray91",
"_. c #E9E9E9",
"`. c #EAEAEA",
"'. c gray92",
"]. c #F9F9F9",
"[. c gray98",
"{. c #FBFBFB",
"}. c gray99",
"|. c #FDFDFD",
" X c #FEFEFE",
".X c white",
"XX c None",
/* pixels */
"XXXXXXXXXXXXXXXXXXXXXXXXXXXXXXXXXXXXXXXXXXXXXXXXXXXXXXXXXXXXXXXXXXXXXXXXXXXXXXXXXXXXXXXXXXXXXXXXXXXXXXXXXXXXXXXXXXXXXXXXXXXXXXXX",
"XXXXXXXXXXXXXXXXXXXXXXXXXXXXXXXXXXXXXXXXXXXXXXXXXXXXXXXXXXXXXXXXXXXXXXXXXXXXXXXXXXXXXXXXXXXXXXXXXXXXXXXXXXXXXXXXXXXXXXXXXXXXXXXX",
"XXXXXXXXXXXXXXXXXXXXXXXXXXXXXXXXXXXXXXXXXXXXXXXXXXXXXXXXXXXXXXXXXXXXXXXXXXXXXXXXXXXXXXXXXXXXXXXXXXXXXXXXXXXXXXXXXXXXXXXXXXXXXXXX",
"XXXXXXXXXXXXXXXXXXXXXXXXXXXXXXXXXXXXXXXXXXXXXXXXXXXXXXXXXXXXXXXXXXXXXXXXXXXXXXXXXXXXXXXXXXXXXXXXXXXXXXXXXXXXXXXXXXXXXXXXXXXXXXXX",
"XXXXXXXXXXXXXXXXXXXXXXXXXXXXXXXXXXXXXXXXXXXXXXXXXXXXXXXXXXXXXXXXXXXXXXXXXXXXXXXXXXXXXXXXXXXXXXXXXXXXXXXXXXXXXXXXXXXXXXXXXXXXXXXX",
"XXXXXXXXXXXXXXXXXXXXXXXXXXXXXXXXXXXXXXXXXXXXXXXXXXXXXXXXXXXXXXXXXXXXXXXXXXXXXXXXXXXXXXXXXXXXXXXXXXXXXXXXXXXXXXXXXXXXXXXXXXXXXXXX",
"XXXXXXXXXXXXXXXXXXXXXXXXXXXXXXXXXXXXXXXXXXXXXXXXXXXXXXXXXXXXXXXXXXXXXXXXo 8 u u u 9 #     XXXXXXXXXXXXXXXXXXXXXXXXXXXXXXXXXXXXXX",
"XXXXXXXXXXXXXXXXXXXXXXXXXXXXXXXXXXXXXXXXXXXXXXXXXXXXXXXXXXXXXXXXXXy u t Z c.E.K.E.l.3     XXXXXXXXXXXXXXXXXXXXXXXXXXXXXXXXXXXXXX",
"XXXXXXXXXXXXXXXXXXXXXXXXXXXXXXXXXXXXXXXXXXXXXXXXXXXXXXXXXXXXo 7 U V.Q.K.~.|..X.X.XQ.9   XXXXXXXXXXXXXXXXXXXXXXXXXXXXXXXXXXXXXXXX",
"XXXXXXXXXXXXXXXXXXXXXXXXXXXXXXXXXXXXXXXXXXXXXXXXXXXXXXXXy t H n.Q.Q./.|..X.X.X.X.XE.y XXXXXXXXXXXXXXXXXXXXXXXXXXXXXXXXXXXXXXXXXX",
"XXXXXXXXXXXXXXXXXXXXXXXXXXXXXXXXXXXXXXXXXXXXXXXXXXXXX H N.J.n.K.m.N H ~.|.Q.Q.|..Xm.y XXXXXXXXXXXXXXXXXXXXXXXXXXXXXXXXXXXXXXXXXX",
"XXXXXXXXXXXXXXXXXXXXXXXXXXXXXXXXXXXXXXXXXXXXXXXX% 8 A V.}.Z.A e n 6 t W.`.{ ' A.N.T XXXXXXXXXXXXXXXXXXXXXXXXXXXXXXXXXXXXXXXXXXXX",
"XXXXXXXXXXXXXXXXXXXXXXXXXXXXXXXXXXXXXXXXXXXXXX  ; -.!..X_.^ X - ..@.C K.|.~.c.A 9 XXXXXXXXXXXXXXXXXXXXXXXXXXXXXXXXXXXXXXXXXXXXXX",
"XXXXXXXXXXXXXXXXXXXXXXXXXXXXXXXXXXXXXXXXXXXXXXo > Z S..X|.N.C e V J Y ~..X.XQ.t XXXXXXXXXXXXXXXXXXXXXXXXXXXXXXXXXXXXXXXXXXXXXXXX",
"XXXXXXXXXXXXXXXXXXXXXXXXXXXXXXXXXXXXXXXXXXXXO g +.f B N.|.|.~.E.K.J.~.{..X|.m.y XXXXXXXXXXXXXXXXXXXXXXXXXXXXXXXXXXXXXXXXXXXXXXXX",
"XXXXXXXXXXXXXXXXXXXXXXXXXXXXXXXXXXXXXXXXXXXX, X.p.5.5 ~ )..X.X.X.X.X.X.X.X~.I XXXXXXXXXXXXXXXXXXXXXXXXXXXXXXXXXXXXXXXXXXXXXXXXXX",
"XXXXXXXXXXXXXXXXXXXXXXXXXXXXXXXXXXXXXXXXXXXX$ 4 c O._ m.|..X.X.X.X.X.X.X|.m.e XXXXXXXXXXXXXXXXXXXXXXXXXXXXXXXXXXXXXXXXXXXXXXXXXX",
"XXXXXXXXXXXXXXXXXXXXXXXXXXXXXXXXXXXXXXXXXXXXXXXX. k 1.{..X.X.X.X.X.X.X.X~.I XXXXXXXXXXXXXXXXXXXXXXXXXXXXXXXXXXXXXXXXXXXXXXXXXXXX",
"XXXXXXXXXXXXXXXXXXXXXXXXXXXXXXXXXXXXXXXXXXXXXXXXXXXXE A. X.X.X.X.X.X.X|.m.e XXXXXXXXXXXXXXXXXXXXXXXXXXXXXXXXXXXXXXXXXXXXXXXXXXXX",
"XXXXXXXXXXXXXXXXXXXXXXXXXXXXXXXXXXXXXXXXXXXXXXXXXXXXXXY D.|..X.X.X.X.X~.I XXXXXXXXXXXXXXXXXXXXXXXXXXXXXXXXXXXXXXXXXXXXXXXXXXXXXX",
"XXXXXXXXXXXXXXXXXXXXXXXXXXXXXXXXXXXXXXXXXXXXXXXXXXXXXXXXI ~..X.X.X.X.XN.e XXXXXXXXXXXXXXXXXXXXXXXXXXXXXXXXXXXXXXXXXXXXXXXXXXXXXX",
"XXXXXXXXXXXXXXXXXXXXXXXXXXXXXXXXXXXXXXXX  XXXXXXXXXXXXXX2 h.E.J.J.E.x.C XXXXXXXXXXXXXXXXXXXXXXXXXXXXXXXXXXXXXXXXXXXXXXXXXXXXXXXX",
"XXXXXXXXXXXXXXXXXXXXXXXXy u u u p r +     # t a p p u y u L Y U U Y J t y y XXXXXXXXXXXXXXy u u u u y XXXXXXXXXXXXXXXXXXXXXXXXXX",
"XXXXXXXXXXXXXXXXXXXXXXY m.E.K.G.k.=.h < > 1 #.g.2.k.G.K.E.K.J.J.J.J.K.E.E.m.I t u u u 7 y c.E.K.K.E.m.I e XXXXXXXXXXXXXXXXXXXXXX",
"XXXXXXXXXXXXXXXXXXe I D. X.X.X`.[ G 8.s.7.v D R D Y (..X.X.X.X.X.X.X.X.X.X|.!.J.K.K.E.h.L E..X.X.X.X|.~.m.I t y XXXXXXXXXXXXXXXX",
"XXXXXXXXXXXXXXXXY n.~.|..X.X.X].:.j i.R.L.d.t.u.4.W N. X.X.X.X.X.X.X.X.X.X.X.X.X.X.X.XW.I J..X.X.X.X.X.X|.!.E.m.Y XXXXXXXXXXXXXX",
"XXXXXXXXXXXXXXY A. X.X.X.X.X.X/.K x d.Y.U.Y.T.T.U.0.Q B. X.X.X.X.X.X.X.X.X.X.X.X.X.X|.N.[ ~..X.X.X.X.X.X.X.X.X XA.Y XXXXXXXXXXXX",
"XXXXXXXXXXXXY A. X.X.X.X.X|./.h.z 6.L.U.U.U.U.U.T.f.l m Z..X.X.X.X.X.X.X.X.X.X.X.X.X~.^ :.H.!.|..X.X.X.X.X.X.X.X Xn.e XXXXXXXXXX",
"XXXXXXXXXXe n. X.X.X.X.X XZ.A 2 w p.T.U.U.U.U.U.U.L.w.d M c.~.{..X.X.X.X.X.X.X.X.X|.N.t 8 y I D. X.X.X.X.X.X.X.X.X~.I XXXXXXXXXX",
"XXXXXXXXXXI ~..X.X.X.X XV.m X XX0 y.T.U.U.U.U.U.T.P.a.o.z A } )..X.X.X.X.X.X.X{._.K.U XXXXXXXXY m.E.!.|..X.X.X.X.X|.N.y XX% 7 XX",
"XXXXXXXXY D.|..X.X.X XF.A X XXXXq i.T.U.U.U.U.L.d.0.( ` C.E.Q.{..X.X.X.X.X.X.X!.| j.u XXXXXXXXXXy t I F.|..X.X.X.X.XW.9   7 -.p ",
"XXXXXXY A. X.X.X.X|.N.A XXXXXXXX0 9.I.U.U.U.I.r.! _ M.~.|..X.X.X.X.X.X.X.X.X|.m.I *.i XXXXXXXXXXXXXXXXI ~..X.X.X.X.XE.7   3 $.t ",
"XXXXy m. X.X.X.X.X~.Z X XXXXXXXXXXF e.L.T.I.q. .n.~.|..X.X.X.X.X.X.X.X.X.X.X~.I XXt XXXXXXXXXXXXXXXXXXe n. X.X.X.X.X~.L 7 u m = ",
"XXXXt E..X.X.X.X.XE.t XXXXXXXXXXXXXXS i.f.7. .A. X.X.X.X.X.X.X.X.X.X.X.X.X Xb.1   XXXXXXXXXXXXXXXXXXXXXXY D.|..X.X.X{.~.E.Q.h.8 ",
"XXXXI !..X.X.X.X|.m.y XXXXXXXXXXXXXX0 +.) ` D. X.X.X.X.X.X.X.X.X.X.X.X.X XD.A # 3 u y XXXXXXXXXXXXXXXXXXXXI ~..X.X.X.X.X.X.XE.u ",
"XXy m.|..X.X.X.X!.I XXXXXXXXXXXXXXXXXXs %.v.[..X.X.X.X.X.X.X.X.X.X.X.X XD.Y XXA b.Q.m.Y XXXXXXXXXXXXXXXXXXe m.|..X.X.X.X.X.XK.u ",
"XXu E..X.X.X.X.XJ.t XXXXXXXXXXXXXXXXt y L [ N.~.|..X.X.X.X.X.X.X.X.X XV.C XX8 N..X.X XA.Y XXXXXXXXXXXXXXXXXXU ~..X.X{.Q.~..XW.u ",
"XXu K..X.X.X.X.XK.u XXXXXXXXXXXXXXe z.W.E.N.' ' N.K.Q.|..X.X.X.X.X XN.C 8 y P ^..X.X.X XA.Y XXXXXXXXXXXXXXXX6 x.|..X)./ A m.l.8 ",
"XXu K..X.X.X.X.XJ.t XXXXXXXXXXXXXXI ~..X.X|.~.V.[ U [ Z.Q.E.E.K.E.N.Z 3 *.z.E.}..X.X.X.X XA.Y XXXXXXXXXXXXXX& ^ )..X|.N.V 8 8 % ",
"XXt J..X.X.X.X.X!.I XXXXXXXXXXXXY D.|..X.X.X.XQ.h.3.*.m 7 8 9 y u y XXXXy I (..X.X.X.X.X.X Xn.e XXXXXXXXXXXX8 x.|..X.X.Xn.6 XXXX",
"o Z ~.|.).|..X.X XF.A X XXXXXXe n. X.X.X.X|.V.A u a e o       XXXXXXXXXXXX9 n. X.X.X.X.X.X.X~.I XXXXXXXXXX  9 !..X.X.X.Xn.9 XXXX",
"8 c..X!.] N.].~.~.[.V.V @ XXXXI ~..X.X.X.X^.Z   XXXXXXXXXXXXXXXXXXXXXXXXXXXXY A. X.X.X.X.X.X|.m.y XXXXXXXX  3 l.E.K.E.c.m @ XXXX",
"u E..XK.8 Z N.L H /. X>.2 XXy m.|..X.X.X|.m.9 XXXXXXXXXXXXXXXXXXXXXXXXXXXXXXXXY D.|..X.X.X.X.XE.u XXXXXXXXXX% 9 u u u 8 @ XXXXXX",
"u E..X/.Z 7 $.1 : z.Z.L @ XXu E..X.X{.`.E.U XXXXXXXXXXXXXXXXXXXXXXXXXXXXXXXXXXXXI ~..X.X.X.X.XK.y XXXXXXXXXXXXXXXXXXXXXXXXXXXXXX",
"8 c.{.W.>.8 1 # # 9 y XXXXXXu K..X.XQ.] &.9 XXXXXXXXXXXXXXXXXXXXXXXXXXXXXXXXXXXXe n. X.X.X.X.XE.9   XXXXXXXXXXXXXXXXXXXXXXXXXXXX",
"@ J <.Y y XXXXXXXXXXXXXXXXXXe J..X.X~.H : # XXXXXXXXXXXXXXXXXXXXXXXXXXXXXXXXXXXXXXY D.|..X.X.XK.y XXXXXXXXXXXXXXXXXXXXXXXXXXXXXX",
"XXXXt XXXXXXXXXXXXXXXXXX@ 6 P ~..X.X|.Z.b   XXXXXXXXXXXXXXXXXXXXXXXXXXXXXXXXXXXXXXXXI !..X.X.XE.y XXXXXXXXXXXXXXXXXXXXXXXXXXXXXX",
"XXXXXXXXXXXXXXXXXXXXXXX m c.^.{..X.X.X XZ.m @ XXXXXXXXXXXXXXXXXXXXXXXXXXXXXXXXXXXXXXt J..X.X|.c.7 6 u y XXXXXXXXXXXXXXXXXXXXXXXX",
"XXXXXXXXXXXXXXXXXXXX@ V Z..X.X.X.X.X.X.X.Xc.8 XXXXXXXXXXXXXXXXXXXXXXXXXXXXXXXXXXXXXXu K..X.X).' H c.W.m.U 7 @ XXXXXXXXXXXXXXXXXX",
"XXXXXXXXXXXXXXXXXXXX2 ,.{..X{.~.~.}..X.X.XE.u XXXXXXXXXXXXXXXXXXXXXXXXXXXXXXXXXXXXXXu K..X.X{.Q.~.|..X|.~.c.m @ XXXXXXXXXXXXXXXX",
"XXXXXXXXXXXXXXXXXXXX@ H /..X^.H A E._.{..XK.u XXXXXXXXXXXXXXXXXXXXXXXXXXXXXXXXXXXXXXy K..X.X.X.X.X.X.X.X.X.Xm.3   XXXXXXXXXXXXXX",
"XXXXXXXXXXXXXXXXXXXXXX6 x.}.b.3 Z n.| ~..XE.u XXXXXXXXXXXXXXXXXXXXXXXXXXXXXXXXXXXX  7 E.|.).{.{.Q.E.~.|..X.Xm.3   XXXXXXXXXXXXXX",
"XXXXXXXXXXXXXXXXXXXXXX@ J <.A 2 :.g.V j.!.x.y XXXXXXXXXXXXXXXXXXXXXXXXXXXXXXXXXXXX  C /.~.} ^.'.] 9 C c.Q.c.m @ XXXXXXXXXXXXXXXX",
"XXXXXXXXXXXXXXXXXXXXXXXXXXt XX# t 9 * 3 9 y XXXXXXXXXXXXXXXXXXXXXXXXXXXXXXXXXXXX@ N Z..XK.H h.~.z.1   8 i 8 @ XXXXXXXXXXXXXXXXXX",
"XXXXXXXXXXXXXXXXXXXXXXXXXXXXXXXXXXXXXX    XXXXXXXXXXXXXXXXXXXXXXXXXXXXXXXXXXXX  3 N..X.XW.u 2 J ;.e XXXXXXXXXXXXXXXXXXXXXXXXXXXX",
"XXXXXXXXXXXXXXXXXXXXXXXXXXXXXXXXXXXXXXXXXXXXXXXXXXXXXXXXXXXXXXXXXXXXXXXXXXXXXX  3 z.W.E.x.y XX@ 2 % XXXXXXXXXXXXXXXXXXXXXXXXXXXX",
"XXXXXXXXXXXXXXXXXXXXXXXXXXXXXXXXXXXXXXXXXXXXXXXXXXXXXXXXXXXXXXXXXXXXXXXXXXXXXXXX% 9 u u y XXXXXXXXXXXXXXXXXXXXXXXXXXXXXXXXXXXXXX",
"XXXXXXXXXXXXXXXXXXXXXXXXXXXXXXXXXXXXXXXXXXXXXXXXXXXXXXXXXXXXXXXXXXXXXXXXXXXXXXXXXXXXXXXXXXXXXXXXXXXXXXXXXXXXXXXXXXXXXXXXXXXXXXXX",
"XXXXXXXXXXXXXXXXXXXXXXXXXXXXXXXXXXXXXXXXXXXXXXXXXXXXXXXXXXXXXXXXXXXXXXXXXXXXXXXXXXXXXXXXXXXXXXXXXXXXXXXXXXXXXXXXXXXXXXXXXXXXXXXX",
"XXXXXXXXXXXXXXXXXXXXXXXXXXXXXXXXXXXXXXXXXXXXXXXXXXXXXXXXXXXXXXXXXXXXXXXXXXXXXXXXXXXXXXXXXXXXXXXXXXXXXXXXXXXXXXXXXXXXXXXXXXXXXXXX",
"XXXXXXXXXXXXXXXXXXXXXXXXXXXXXXXXXXXXXXXXXXXXXXXXXXXXXXXXXXXXXXXXXXXXXXXXXXXXXXXXXXXXXXXXXXXXXXXXXXXXXXXXXXXXXXXXXXXXXXXXXXXXXXXX",
"XXXXXXXXXXXXXXXXXXXXXXXXXXXXXXXXXXXXXXXXXXXXXXXXXXXXXXXXXXXXXXXXXXXXXXXXXXXXXXXXXXXXXXXXXXXXXXXXXXXXXXXXXXXXXXXXXXXXXXXXXXXXXXXX",
"XXXXXXXXXXXXXXXXXXXXXXXXXXXXXXXXXXXXXXXXXXXXXXXXXXXXXXXXXXXXXXXXXXXXXXXXXXXXXXXXXXXXXXXXXXXXXXXXXXXXXXXXXXXXXXXXXXXXXXXXXXXXXXXX",
"XXXXXXXXXXXXXXXXXXXXXXXXXXXXXXXXXXXXXXXXXXXXXXXXXXXXXXXXXXXXXXXXXXXXXXXXXXXXXXXXXXXXXXXXXXXXXXXXXXXXXXXXXXXXXXXXXXXXXXXXXXXXXXXX"
};
